<?xml version="1.0" encoding="utf-8"?>
<!-- Generator: Adobe Illustrator 19.0.0, SVG Export Plug-In . SVG Version: 6.00 Build 0)  -->
<svg version="1.1" id="layer" xmlns="http://www.w3.org/2000/svg" xmlns:xlink="http://www.w3.org/1999/xlink" x="0px" y="0px"
	 viewBox="-153 -46 652 652" style="enable-background:new -153 -46 652 652;" xml:space="preserve">
<style type="text/css">
	.st0{fill-rule:evenodd;clip-rule:evenodd;fill:#F9423A;}
</style>
<path class="st0" d="M-16.1,279.8c1.4-0.6,2-2.1,1.5-3.5l-14.7-36.5c-0.6-1.4-2.1-2-3.5-1.5l-9.5,3.8c-1.4,0.6-2,2.1-1.5,3.5
	l14.7,36.5c0.6,1.4,2.1,2,3.5,1.5L-16.1,279.8z M-37.1,291.5c1-1,1-2.7,0-3.8l-35.7-35.7c-1-1-2.7-1-3.7,0l-7.3,7.3
	c-1,1-1,2.7,0,3.8l35.7,35.7c1,1,2.7,1,3.8,0L-37.1,291.5z M-52.3,310.3c0.6-1.4-0.1-2.9-1.5-3.5l-36.5-14.7
	c-1.4-0.5-2.9,0.1-3.5,1.5l-3.8,9.5c-0.6,1.4,0.1,2.9,1.5,3.5l36.5,14.7c1.4,0.5,2.9-0.1,3.5-1.5L-52.3,310.3z M-55.8,209.1
	c39.2,0,71,31.8,71,71c0,39.2-31.8,71-71,71s-71-31.8-71-71C-126.8,240.9-95,209.1-55.8,209.1L-55.8,209.1z M322,208.9
	c1.8,0,2.1,1.3,1.8,2.7l-4.8,24.8c-0.2,1.4-1,1.8-2.3,1.8h-11.7c-1.8,0-2.1-1.3-1.8-2.7l4.8-24.8c0.2-1.4,1-1.8,2.3-1.8H322z
	 M473.3,260.5c0,1.3-0.8,1.9-2.2,1.9h-14.4c4.1,7.2,5.4,14.7,5.4,22.6c0,26.6-18.5,48.8-44.5,48.8c-9.6,0-21.2-4.8-26.1-14.7
	c-5.9,7.5-13.9,14.7-26.6,14.7c-8.3,0-17.4-2.7-22-11c-7,7-15.6,11-24.5,11c-26.6,0-29.5-22.3-26-42.2l4-23.5
	c-6.4,3.3-15.8,3.3-20.9,2.2c1.3,4.8,1.8,9.6,1.8,14.3c0,25.7-14.3,49.3-42.6,49.3c-9.9,0-20.6-4.6-25.5-14.8
	c-5.3,9.2-15.5,14.8-25.8,14.8c-7.8,0-16.4-4.3-20.7-12.9c-7.2,9.4-18,12.9-26.8,12.9c-18.5,0-26.1-11.5-26.1-29.2
	c0-4.6,0.6-9.6,1.6-15l7.5-41.5c0.2-1.1,1-1.6,2.2-1.6h13.1c1.6,0,1.8,1.3,1.6,2.2l-7.6,41.3c-3.2,17.2-2.1,27.4,10,27.4
	c10.5,0,18.2-7.2,21-23.1l8.3-46.2c0.2-1.1,1-1.6,2.2-1.6h13.1c1.6,0,1.8,1.3,1.6,2.2l-7.7,42.3c-1.9,10-3.5,26.3,8.8,26.3
	c8.8,0,14.3-8.8,18-28.4l14.3-78.4c0.2-1.1,1.2-1.6,2.2-1.6h13.1c0.9,0,1.9,0.8,1.6,2.2l-7.4,41c6.5-3.7,14-5.9,21.2-5.9
	c6.5,0,11,1.9,15.5,4c14.9,7.4,29.1,3.3,35.3-2.5c0.8-0.8,1.6-1.2,2.7-1.2c0.3,0,12.9,0,12.9,0c2.1,0,2.4,1.4,2.1,3l-7.9,42.1
	c-2.4,11.6-2.2,25.7,10.2,25.7c10.4,0,17.2-10.5,20.4-27.3l5.3-26.8h-14.8c-1.6,0-2.6-0.8-2.6-2.2V249c0-1.6,0.8-2.4,2.2-2.4h18.4
	l6.9-35.9c0.2-1.4,1-1.8,2.3-1.8h12.8c1.8,0,2.1,1.3,1.8,2.7l-6.8,35h19.7c1.4,0,2.2,0.8,2.2,2.2v12.4c0,1.3-0.8,2.1-2.1,2.1h-23.1
	l-5.6,28.4c-1.9,9.9-3.2,25.7,9.1,25.7c13.7,0,18.5-13.7,20.6-28.5c4.1-29.3,21.7-42.9,45.4-42.9H471c1.4,0,2.2,0.8,2.2,2.2V260.5z
	 M259.9,285.2c0-15.6-7.5-22.6-16-22.6c-11.5,0-24.1,12.1-24.1,32.4c0,12.3,5.3,22.5,16.3,22.5C248.5,317.4,259.9,305,259.9,285.2
	L259.9,285.2z M444.7,285.2c0-15.6-7.8-22.6-16.7-22.6c-12,0-25.2,12.1-25.2,32.4c0,12.3,5.6,22.5,17.1,22.5
	C432.7,317.4,444.7,305,444.7,285.2L444.7,285.2z M106.6,257.9l-6,9.4c-0.8,1.1-1.9,1.3-2.9,0.6c-5.3-3-11.6-7.2-21-7.2
	c-8.8,0-14.8,2.9-14.8,8.4c0,5.1,1.8,6.7,16.6,12.9c15.9,6.7,23.6,12.6,23.6,26.8c0,18.8-15.5,24.9-32.2,24.9
	c-7,0-21.4-0.8-32.7-13.9l-3.3-3.8c-0.5-0.7-0.8-1.1-0.8-1.8c0-0.6,0.3-1.3,0.8-1.8l9.1-8c0.5-0.4,1-0.6,1.6-0.6
	c0.5,0,1.1,0.1,1.6,0.8c7.2,8.5,14.5,12.8,23.8,12.8c10.2,0,14.7-2.7,14.7-8.6c0-4.5-1.9-6.7-13.9-11.8
	c-17.9-7.5-25.8-13.1-25.8-27.9c0-14.8,12.4-25,32.2-25c9.7,0,19.8,3.2,29,9.7c0.9,0.6,1.3,1.4,1.3,2.1
	C107.2,256.6,106.9,257.3,106.6,257.9L106.6,257.9z M106.6,257.9"/>
</svg>
